<?xml version="1.0" encoding="UTF-8" standalone="no"?>
<svg
   height="48"
   viewBox="0 -960 960 960"
   width="48"
   version="1.1"
   id="svg309"
   sodipodi:docname="icon.svg"
   inkscape:version="1.2.2 (732a01da63, 2022-12-09)"
   inkscape:export-filename="icon.png"
   inkscape:export-xdpi="96"
   inkscape:export-ydpi="96"
   xmlns:inkscape="http://www.inkscape.org/namespaces/inkscape"
   xmlns:sodipodi="http://sodipodi.sourceforge.net/DTD/sodipodi-0.dtd"
   xmlns="http://www.w3.org/2000/svg"
   xmlns:svg="http://www.w3.org/2000/svg">
  <defs
     id="defs313" />
  <sodipodi:namedview
     id="namedview311"
     pagecolor="#ffffff"
     bordercolor="#000000"
     borderopacity="0.25"
     inkscape:showpageshadow="2"
     inkscape:pageopacity="0.0"
     inkscape:pagecheckerboard="0"
     inkscape:deskcolor="#d1d1d1"
     showgrid="false"
     inkscape:zoom="10.89097"
     inkscape:cx="-2.938214"
     inkscape:cy="24.699361"
     inkscape:window-width="1304"
     inkscape:window-height="745"
     inkscape:window-x="-8"
     inkscape:window-y="-8"
     inkscape:window-maximized="1"
     inkscape:current-layer="svg309" />
  <path
     id="path307"
     d="m 304.28554,-740 c -48.73143,0 -96.51488,10.10723 -143.37202,30.25574 -46.85714,20.1485 -87.17638,46.1652 -120.91352,78.02795 l 184.17072,184.11525 h 70.28578 v 81.54225 c 28.11429,27.17706 59.93332,47.09135 95.54476,59.74273 35.61141,12.65139 71.24494,17.58238 106.85635,14.77094 l 25.31747,-4.65042 c -7.03442,2.67363 18.28228,-4.59908 30.47304,-9.76934 l 28.55244,-13.69446 c 14.9943,-6.55997 28.56093,-13.58853 40.74379,-21.08567 12.18286,-7.49711 24.38772,-18.28523 36.57057,-32.34233 L 682.40111,-401.2016 859.54325,-224.06 H 920 v -60.45658 L 581.20056,-623.31497 550.54971,-649.4811 c -5.82697,-5.41033 -18.65086,-13.42942 -25.0972,-17.64063 l -28.5949,-16.64981 C 468.74332,-703.45148 436.62413,-717.699 400.54413,-726.60183 364.46412,-735.50464 332.39982,-740 304.28554,-740 Z m 0,84.34269 c 42.17142,0 82.00011,8.69052 119.48583,26.0276 37.48574,17.3371 71.21198,41.01095 101.20056,70.99941 l 96.97242,96.97213 -23.88619,28.11423 c -11.24571,13.11995 -29.06245,26.00568 -53.42818,38.65705 -24.36571,12.6514 -48.22997,18.99908 -71.65856,18.99908 -15.93142,0 -31.65058,-2.58812 -47.11343,-7.7424 -15.46287,-5.15427 -31.12711,-12.86372 -47.05854,-23.17227 V -531.94374 H 262.11406 l -89.99874,-89.94358 c 21.55427,-10.30853 42.64006,-18.50853 63.2572,-24.59993 20.61715,-6.0914 43.61017,-9.17006 68.91302,-9.17006 z"
     sodipodi:nodetypes="ssccccsccccscccccccccsssssccsssccccss"
     style="stroke-width:1.40572;fill:#43adee;fill-opacity:1" />
</svg>
